# xmcd
#
# Track frame offsets:
#	150
#	14007
#	29627
#	42162
#	56934
#	71514
#	86706
#	100251
#	117411
#	133017
#	150217
#	168271
#
# Disc length: 2373 seconds
#
# Revision: 1
# Processed by: cddbd v1.5.2PL0 Copyright (c) Steve Scherf et al.
# Submitted via: audiograbber 1.82.02
#
DISCID=a109430c
DTITLE=Laura Downing - A Little Good News
DYEAR=2004
DGENRE=Country
TTITLE0=What's Wrong With What We're Doing Now
TTITLE1=A Little Good News
TTITLE2=Yodelling Blues
TTITLE3=Your Own Sweet Time
TTITLE4=Sweet Rain
TTITLE5=Eagle When She Flies
TTITLE6=Tumbleweed Yodel
TTITLE7=Circle Of Sawdust
TTITLE8=Long Gone Lonesom Blues
TTITLE9=When We Get To Heaven
TTITLE10=Working Man
TTITLE11=Sweet Little Lover
EXTD=
EXTT0=
EXTT1=
EXTT2=
EXTT3=
EXTT4=
EXTT5=
EXTT6=
EXTT7=
EXTT8=
EXTT9=
EXTT10=
EXTT11=
PLAYORDER=
